HIERARCHY
ROOT Hips
{
	OFFSET 0.000000 88.474243 0.000000
	CHANNELS 6 Xposition Yposition Zposition Zrotation Yrotation Xrotation 
	JOINT Hips_Spine
	{
		OFFSET 0.000000 0.000000 0.000000
		CHANNELS 3 Zrotation Yrotation Xrotation
		JOINT Spine
		{
			OFFSET 0.005100 8.711998 -0.691000
			CHANNELS 3 Zrotation Yrotation Xrotation
			JOINT Spine1
			{
				OFFSET -0.009200 8.660301 -1.275000
				CHANNELS 3 Zrotation Yrotation Xrotation
				JOINT Spine2
				{
					OFFSET 0.006300 9.852501 -1.857000
					CHANNELS 3 Zrotation Yrotation Xrotation
					JOINT Spine2_Neck
					{
						OFFSET 0.000000 0.000000 0.000000
						CHANNELS 3 Zrotation Yrotation Xrotation
						JOINT Neck
						{
							OFFSET 0.016300 11.420799 -0.263300
							CHANNELS 3 Zrotation Yrotation Xrotation
							End Site #name: Head
							{
								OFFSET -0.019200 9.262405 2.362500
							}
						}
					}
					JOINT Spine2_LeftShoulder
					{
						OFFSET 0.000000 0.000000 0.000000
						CHANNELS 3 Zrotation Yrotation Xrotation
						JOINT LeftShoulder
						{
							OFFSET 5.616900 6.732201 -0.345700
							CHANNELS 3 Zrotation Yrotation Xrotation
							JOINT LeftArm
							{
								OFFSET 10.664888 -0.183372 -2.440700
								CHANNELS 3 Zrotation Yrotation Xrotation
								JOINT LeftForeArm
								{
									OFFSET 27.459126 0.000000 0.000000
									CHANNELS 3 Zrotation Yrotation Xrotation
									End Site #name: LeftHand
									{
										OFFSET 21.306858 0.000000 0.000000
									}
								}
							}
						}
					}
					JOINT Spine2_RightShoulder
					{
						OFFSET 0.000000 0.000000 0.000000
						CHANNELS 3 Zrotation Yrotation Xrotation
						JOINT RightShoulder
						{
							OFFSET -5.580300 6.737503 -0.344400
							CHANNELS 3 Zrotation Yrotation Xrotation
							JOINT RightArm
							{
								OFFSET -10.679335 -0.188484 -2.383900
								CHANNELS 3 Zrotation Yrotation Xrotation
								JOINT RightForeArm
								{
									OFFSET -27.503529 0.000000 0.000000
									CHANNELS 3 Zrotation Yrotation Xrotation
									End Site #name: RightHand
									{
										OFFSET -21.306808 0.000000 0.000000
									}
								}
							}
						}
					}
				}
			}
		}
	}
	JOINT Hips_LeftUpLeg
	{
		OFFSET 0.000000 0.000000 0.000000
		CHANNELS 3 Zrotation Yrotation Xrotation
		JOINT LeftUpLeg
		{
			OFFSET 6.857700 -6.739601 0.312100
			CHANNELS 3 Zrotation Yrotation Xrotation
			JOINT LeftLeg
			{
				OFFSET -0.367590 -34.731552 -4.572400
				CHANNELS 3 Zrotation Yrotation Xrotation
				End Site #name: LeftFoot
				{
					OFFSET 0.367590 -34.656704 -6.067400
				}
			}
		}
	}
	JOINT Hips_RightUpLeg
	{
		OFFSET 0.000000 0.000000 0.000000
		CHANNELS 3 Zrotation Yrotation Xrotation
		JOINT RightUpLeg
		{
			OFFSET -6.876100 -6.733299 0.301000
			CHANNELS 3 Zrotation Yrotation Xrotation
			JOINT RightLeg
			{
				OFFSET 0.347353 -34.795158 -4.515900
				CHANNELS 3 Zrotation Yrotation Xrotation
				End Site #name: RightFoot
				{
					OFFSET -0.347353 -34.589367 -6.070300
				}
			}
		}
	}
}
MOTION
Frames: 14
Frame Time: 0.041667
-1.037459 -0.608040 -3.809805 -7.587167 20.627706 2.041240 0.000000 -0.000000 -0.000000 4.514742 -0.174912 -0.935687 4.107957 -0.128809 3.161896 0.000000 0.000000 0.000000 4.223591 -0.335710 4.099130 -3.765830 -5.210626 -5.802036 3.124361 -0.281251 2.575185 -6.049993 -3.572158 -1.519684 -89.544064 -12.855335 -4.538636 -1.620454 10.845382 0.106191 3.808772 -0.672360 2.544100 14.766465 15.374176 3.755891 38.560756 52.931063 -25.120870 177.621626 31.876288 -177.062736 0.000000 0.000000 -0.000000 2.553994 11.982109 -24.057386 -3.145041 -7.345627 4.358682 0.000000 0.000000 0.000000 8.415081 -1.735190 -4.144820 3.605222 -1.433640 1.090279 
-1.079354 -0.621880 -3.921649 -7.526137 20.561316 2.039564 0.000000 -0.000000 -0.000000 4.476511 -0.196819 -0.923574 4.138138 -0.122732 3.138795 0.000000 0.000000 0.000000 4.242932 -0.333558 4.066951 -3.724032 -5.164767 -5.772250 3.139624 -0.264182 2.546819 -6.037651 -3.620083 -1.534377 -89.676366 -12.875294 -4.712872 -1.625520 10.833375 0.100101 3.836218 -0.663327 2.523194 14.857545 15.407019 3.776321 38.633377 52.800894 -24.893472 177.644945 31.928755 -177.058035 0.000000 0.000000 -0.000000 2.557677 11.976937 -24.005410 -3.141178 -7.388142 4.322574 0.000000 0.000000 0.000000 8.408486 -1.746933 -4.115759 3.606507 -1.441208 1.087914 
-1.118648 -0.635937 -4.033555 -7.465765 20.498968 2.038018 0.000000 -0.000000 -0.000000 4.435636 -0.220106 -0.915413 4.168098 -0.117385 3.112753 0.000000 0.000000 0.000000 4.261488 -0.331145 4.033018 -3.680466 -5.118779 -5.735854 3.154603 -0.246365 2.519381 -6.023028 -3.672698 -1.548533 -89.831819 -12.888281 -4.904004 -1.630819 10.818631 0.091767 3.861572 -0.653133 2.503211 14.926961 15.427657 3.796843 38.705085 52.648086 -24.686683 177.667759 31.990065 -177.053420 0.000000 0.000000 -0.000000 2.559080 11.973390 -23.961195 -3.138203 -7.428328 4.298645 0.000000 0.000000 0.000000 8.401954 -1.757380 -4.084632 3.604872 -1.451472 1.081011 
-1.154784 -0.650136 -4.145583 -7.404138 20.436999 2.035660 0.000000 -0.000000 -0.000000 4.385293 -0.247458 -0.895952 4.195021 -0.110863 3.086405 0.000000 0.000000 0.000000 4.278827 -0.328787 3.998295 -3.635411 -5.072986 -5.700696 3.168158 -0.227226 2.490912 -6.005322 -3.724415 -1.562202 -89.995545 -12.893748 -5.077529 -1.637002 10.797174 0.083267 3.886004 -0.642959 2.478836 15.002056 15.474929 3.825299 38.803054 52.425837 -24.427897 177.690298 32.033498 -177.050933 0.000000 0.000000 -0.000000 2.558383 11.969641 -23.918758 -3.134168 -7.467568 4.271902 0.000000 0.000000 0.000000 8.392628 -1.768940 -4.060068 3.601605 -1.464407 1.082173 
-1.187343 -0.664485 -4.257868 -7.344124 20.375829 2.032301 0.000000 -0.000000 -0.000000 4.331265 -0.278510 -0.874994 4.222025 -0.104144 3.058557 0.000000 0.000000 0.000000 4.295200 -0.325718 3.963361 -3.588180 -5.027268 -5.668214 3.181737 -0.207794 2.460578 -5.983790 -3.777780 -1.577652 -90.157860 -12.896949 -5.244781 -1.643891 10.756581 0.076950 3.911373 -0.633086 2.454606 15.079133 15.533758 3.855966 38.887249 52.175838 -24.203262 177.712085 32.064069 -177.050860 0.000000 -0.000000 -0.000000 2.556268 11.966261 -23.878444 -3.128702 -7.500421 4.248836 0.000000 0.000000 0.000000 8.385003 -1.780086 -4.034782 3.595162 -1.484061 1.075883 
-1.215632 -0.678745 -4.370585 -7.280886 20.316491 2.029812 0.000000 -0.000000 -0.000000 4.272246 -0.307222 -0.846560 4.249398 -0.096362 3.030163 0.000000 0.000000 0.000000 4.312075 -0.322984 3.942745 -3.535808 -4.984299 -5.643283 3.195720 -0.184699 2.429285 -5.958467 -3.834662 -1.593741 -90.313102 -12.900221 -5.410177 -1.650908 10.696216 0.071648 3.937371 -0.620836 2.425628 15.163645 15.607734 3.891069 38.821427 51.964063 -24.189461 177.734008 32.099342 -177.051861 0.000000 -0.000000 -0.000000 2.550541 11.960531 -23.845738 -3.124184 -7.524440 4.232440 0.000000 0.000000 0.000000 8.375245 -1.786540 -4.013864 3.585438 -1.508679 1.076385 
-1.238978 -0.692937 -4.483624 -7.215823 20.255026 2.028708 0.000000 -0.000000 -0.000000 4.210310 -0.331336 -0.812901 4.277896 -0.086918 2.995868 0.000000 0.000000 0.000000 4.327500 -0.319335 3.920816 -3.480837 -4.944212 -5.617465 3.210199 -0.159723 2.399455 -5.930154 -3.899795 -1.607237 -90.480724 -12.886663 -5.567551 -1.657979 10.626283 0.065987 3.963976 -0.606654 2.398862 15.239468 15.713919 3.929730 38.773091 51.702773 -24.153195 177.754990 32.133942 -177.055598 0.000000 -0.000000 -0.000000 2.546724 11.954312 -23.816152 -3.119106 -7.540679 4.223356 0.000000 0.000000 0.000000 8.363808 -1.794864 -3.997446 3.573534 -1.543232 1.076652 
-1.256652 -0.706901 -4.597101 -7.147328 20.207583 2.025540 0.000000 -0.000000 -0.000000 4.140654 -0.361516 -0.777333 4.306118 -0.076501 2.961241 0.000000 0.000000 0.000000 4.344311 -0.315022 3.899187 -3.423775 -4.905884 -5.588431 3.224600 -0.132928 2.366791 -5.889882 -3.966392 -1.623875 -90.646743 -12.875418 -5.722276 -1.664743 10.548898 0.062412 3.991345 -0.590350 2.367534 15.290783 15.852741 3.968360 38.756787 51.430550 -24.093174 177.775080 32.223022 -177.058246 0.000000 -0.000000 -0.000000 2.540900 11.949374 -23.793780 -3.114608 -7.545540 4.227948 0.000000 0.000000 0.000000 8.350797 -1.797925 -3.983036 3.556718 -1.591687 1.078596 
-1.268071 -0.720755 -4.711060 -7.078862 20.180806 2.015494 0.000000 -0.000000 -0.000000 4.070882 -0.384613 -0.742979 4.338031 -0.066353 2.927021 0.000000 0.000000 0.000000 4.362109 -0.310490 3.875027 -3.372976 -4.866647 -5.532119 3.240432 -0.105220 2.334538 -5.848276 -4.047087 -1.633380 -90.820113 -12.860941 -5.884063 -1.673386 10.463700 0.058986 4.021103 -0.571964 2.334463 15.312961 15.976387 3.996488 38.766627 51.125934 -24.018334 177.796119 32.355870 -177.061670 0.000000 -0.000000 -0.000000 2.535196 11.945425 -23.770141 -3.109769 -7.533112 4.234639 0.000000 0.000000 0.000000 8.337224 -1.798647 -3.968595 3.539026 -1.651394 1.080992 
-1.272142 -0.734316 -4.825482 -7.013819 20.161405 2.000109 0.000000 -0.000000 -0.000000 3.991314 -0.417339 -0.701166 4.373120 -0.055952 2.892249 0.000000 0.000000 0.000000 4.381657 -0.307072 3.850389 -3.327098 -4.819232 -5.453626 3.256833 -0.074000 2.300035 -5.797197 -4.124173 -1.644085 -90.996645 -12.831749 -6.039727 -1.678628 10.389517 0.057651 4.051834 -0.552004 2.299704 15.317686 16.128061 4.028782 38.736748 50.811072 -23.970784 177.818385 32.486238 -177.069676 0.000000 -0.000000 -0.000000 2.528041 11.940019 -23.746810 -3.106147 -7.506755 4.249253 0.000000 0.000000 0.000000 8.321566 -1.794977 -3.951828 3.517384 -1.723547 1.084021 
-1.267633 -0.747601 -4.940464 -6.952830 20.154288 1.977834 0.000000 -0.000000 -0.000000 3.915237 -0.437711 -0.664420 4.407487 -0.046465 2.856159 0.000000 0.000000 0.000000 4.401358 -0.302073 3.822809 -3.281977 -4.771849 -5.371518 3.271476 -0.059446 2.265912 -5.736341 -4.208937 -1.644320 -91.159015 -12.795866 -6.186992 -1.686014 10.317605 0.056967 4.084856 -0.531923 2.262893 15.313311 16.316971 4.068119 38.750632 50.480823 -23.872857 177.838445 32.625231 -177.082343 0.000000 -0.000000 -0.000000 2.522866 11.934763 -23.724694 -3.103856 -7.465538 4.273163 0.000000 0.000000 0.000000 8.305345 -1.788163 -3.931355 3.495010 -1.806758 1.077512 
-1.253594 -0.760544 -5.055923 -6.895603 20.151964 1.950982 0.000000 -0.000000 -0.000000 3.830293 -0.465468 -0.626184 4.440971 -0.036486 2.820477 0.000000 0.000000 0.000000 4.420312 -0.295704 3.795071 -3.239577 -4.727234 -5.285549 3.285923 -0.044832 2.228763 -5.668784 -4.292449 -1.639732 -91.330112 -12.745564 -6.334657 -1.690054 10.241422 0.060375 4.115935 -0.509914 2.225064 15.318618 16.510857 4.106291 38.748227 50.175568 -23.774664 177.856611 32.779690 -177.096940 0.000000 -0.000000 -0.000000 2.520747 11.928623 -23.706218 -3.104011 -7.406536 4.310161 0.000000 0.000000 0.000000 8.285762 -1.780393 -3.907478 3.470137 -1.903664 1.067347 
-1.228946 -0.773236 -5.171931 -6.843608 20.152725 1.917034 0.000000 -0.000000 -0.000000 3.742250 -0.499105 -0.584934 4.469514 -0.027397 2.784198 0.000000 0.000000 0.000000 4.436153 -0.288217 3.764856 -3.198482 -4.681979 -5.195810 3.298480 -0.029767 2.189760 -5.593731 -4.386704 -1.625883 -91.479733 -12.694182 -6.465768 -1.694533 10.166660 0.063580 4.145775 -0.489071 2.185513 15.330369 16.702541 4.142234 38.858391 49.831288 -23.558317 177.873753 32.956699 -177.113600 0.000000 -0.000000 -0.000000 2.519134 11.923134 -23.688768 -3.104989 -7.334282 4.357200 0.000000 0.000000 0.000000 8.268168 -1.767589 -3.882201 3.444037 -2.008744 1.056011 
-1.194442 -0.785729 -5.288442 -6.798571 20.154728 1.875552 0.000000 -0.000000 -0.000000 3.654544 -0.533500 -0.545807 4.493158 -0.019530 2.746260 0.000000 0.000000 0.000000 4.448725 -0.279852 3.731205 -3.158037 -4.637966 -5.103822 3.309623 -0.014283 2.147565 -5.510550 -4.485247 -1.607252 -91.620888 -12.621059 -6.583287 -1.697007 10.096897 0.069501 4.170236 -0.465537 2.144367 15.375903 16.869975 4.178105 39.157292 49.466431 -23.180737 177.890182 33.141836 -177.131007 0.000000 -0.000000 -0.000000 2.518537 11.915306 -23.666286 -3.105906 -7.247102 4.405380 0.000000 0.000000 0.000000 8.250964 -1.755425 -3.856839 3.415052 -2.118641 1.042359 
